<svg width="24" height="24" viewBox="0 0 24 24" fill="none" xmlns="http://www.w3.org/2000/svg">
<path d="M21 9.75C20.8011 9.75 20.6103 9.82902 20.4697 9.96967C20.329 10.1103 20.25 10.3011 20.25 10.5V16.5C20.25 16.6989 20.171 16.8897 20.0303 17.0303C19.8897 17.171 19.6989 17.25 19.5 17.25H4.5C4.30109 17.25 4.11032 17.171 3.96967 17.0303C3.82902 16.8897 3.75 16.6989 3.75 16.5V10.5C3.75 10.3011 3.67098 10.1103 3.53033 9.96967C3.38968 9.82902 3.19891 9.75 3 9.75C2.80109 9.75 2.61032 9.82902 2.46967 9.96967C2.32902 10.1103 2.25 10.3011 2.25 10.5V16.5C2.25053 17.0965 2.48792 17.6684 2.91 18.09C3.33155 18.5121 3.90346 18.7495 4.5 18.75H19.5C20.0965 18.7495 20.6684 18.5121 21.09 18.09C21.5121 17.6684 21.7495 17.0965 21.75 16.5V10.5C21.75 10.3011 21.671 10.1103 21.5303 9.96967C21.3897 9.82902 21.1989 9.75 21 9.75Z" fill="white"/>
<path d="M11.55 14.1C11.6798 14.1974 11.8377 14.25 12 14.25C12.1623 14.25 12.3202 14.1974 12.45 14.1L21.3075 7.455C21.4457 7.3508 21.5436 7.20202 21.5846 7.03389C21.6256 6.86576 21.6072 6.68862 21.5325 6.5325C21.4208 6.30174 21.2712 6.09133 21.09 5.91C20.6684 5.48792 20.0965 5.25053 19.5 5.25H4.49998C3.90345 5.25053 3.33153 5.48792 2.90998 5.91C2.72875 6.09133 2.57918 6.30174 2.46748 6.5325C2.39279 6.68862 2.3744 6.86576 2.4154 7.03389C2.45641 7.20202 2.5543 7.3508 2.69248 7.455L11.55 14.1ZM4.49998 6.75H19.5C19.5696 6.73904 19.6404 6.73904 19.71 6.75L12 12.5625L4.28998 6.75C4.35955 6.73904 4.43041 6.73904 4.49998 6.75Z" fill="white"/>
</svg>
