<svg width="24" height="24" viewBox="0 0 24 24" fill="none" xmlns="http://www.w3.org/2000/svg">
<path d="M19.4953 15.7266C18.8109 15.0234 16.8656 13.7063 15.5906 13.7063C15.2953 13.7063 15.0375 13.7719 14.8266 13.9078C14.2031 14.3063 13.7062 14.6156 13.4672 14.6156C13.3359 14.6156 13.1953 14.4984 12.8859 14.2313L12.8344 14.1844C11.9766 13.4391 11.7937 13.2469 11.4609 12.9L11.3766 12.8109C11.3156 12.75 11.2641 12.6938 11.2125 12.6422C10.9219 12.3422 10.7109 12.1266 9.96562 11.2828L9.9328 11.2453C9.57655 10.8422 9.34218 10.5797 9.32812 10.3875C9.31405 10.2 9.47812 9.89532 9.89531 9.32814C10.4016 8.64376 10.4203 7.80001 9.95624 6.82032C9.58593 6.04689 8.98124 5.30626 8.44687 4.6547L8.39999 4.59845C7.94062 4.03595 7.40624 3.7547 6.81093 3.7547C6.14999 3.7547 5.60155 4.11095 5.31093 4.29845C5.28749 4.31251 5.26405 4.33126 5.24062 4.34532C4.58905 4.75782 4.11562 5.32501 3.93749 5.90157C3.6703 6.76876 3.49218 7.89376 4.77187 10.2328C5.87812 12.2578 6.88124 13.6172 8.47499 15.2531C9.97499 16.7906 10.6406 17.2875 12.1312 18.3656C13.7906 19.5656 15.3844 20.2547 16.5 20.2547C17.5359 20.2547 18.3516 20.2547 19.5141 18.8531C20.7328 17.3813 20.2266 16.4813 19.4953 15.7266ZM18.9562 18.3469C18.0187 19.4813 17.4797 19.4813 16.5047 19.4813C15.5531 19.4813 14.0766 18.825 12.5578 17.7328C11.1047 16.6828 10.4578 16.2 8.99999 14.7047C7.4578 13.125 6.48749 11.8078 5.41874 9.85314C4.28905 7.78595 4.41562 6.88126 4.6453 6.13595C4.76718 5.73751 5.1328 5.31095 5.62968 5.00157C5.65312 4.98751 5.67655 4.96876 5.70468 4.9547C5.95312 4.79532 6.36562 4.52814 6.81562 4.52814C7.19062 4.52814 7.52343 4.71564 7.84218 5.1047L7.88905 5.16095C9.08437 6.62345 10.0172 7.9172 9.31405 8.87345C8.81718 9.54376 8.55468 9.99845 8.59687 10.4672C8.63437 10.9219 8.93905 11.2641 9.39843 11.7797L9.43124 11.8172C10.1859 12.6703 10.4016 12.8953 10.7016 13.2C10.7531 13.2516 10.8047 13.3078 10.8656 13.3688L10.95 13.4578C11.2969 13.8188 11.4891 14.0156 12.3703 14.7891L12.4219 14.8359C12.7969 15.1641 13.0734 15.4031 13.4766 15.4031C13.8937 15.4031 14.3531 15.1406 15.225 14.5828C15.3141 14.5266 15.4406 14.4938 15.6 14.4938C16.6172 14.4938 18.3703 15.6563 18.9844 16.2891C19.5469 16.8609 19.8281 17.2922 18.9562 18.3469Z" fill="white"/>
</svg>
